<?xml version="1.0" encoding="UTF-8" standalone="no"?>
<svg
   xmlns:dc="http://purl.org/dc/elements/1.1/"
   xmlns:cc="http://creativecommons.org/ns#"
   xmlns:rdf="http://www.w3.org/1999/02/22-rdf-syntax-ns#"
   xmlns:svg="http://www.w3.org/2000/svg"
   xmlns="http://www.w3.org/2000/svg"
   xmlns:sodipodi="http://sodipodi.sourceforge.net/DTD/sodipodi-0.dtd"
   xmlns:inkscape="http://www.inkscape.org/namespaces/inkscape"
   width="13cm"
   height="9.5cm"
   viewBox="0 0 1300 950"
   version="1.1"
   id="svg2"
   inkscape:version="0.48.3.1 r9886"
   sodipodi:docname="cloud.svg"
   inkscape:export-filename="/home/gowda/code/JuliaBox/host/nginx/www/assets/img/juliacloudlogo.png"
   inkscape:export-xdpi="90"
   inkscape:export-ydpi="90">
  <metadata
     id="metadata18">
    <rdf:RDF>
      <cc:Work
         rdf:about="">
        <dc:format>image/svg+xml</dc:format>
        <dc:type
           rdf:resource="http://purl.org/dc/dcmitype/StillImage" />
        <dc:title></dc:title>
      </cc:Work>
    </rdf:RDF>
  </metadata>
  <defs
     id="defs16" />
  <sodipodi:namedview
     pagecolor="#ffffff"
     bordercolor="#666666"
     borderopacity="1"
     objecttolerance="10"
     gridtolerance="10"
     guidetolerance="10"
     inkscape:pageopacity="0"
     inkscape:pageshadow="2"
     inkscape:window-width="1366"
     inkscape:window-height="717"
     id="namedview14"
     showgrid="false"
     inkscape:zoom="1.4021989"
     inkscape:cx="454.47792"
     inkscape:cy="190.49857"
     inkscape:window-x="0"
     inkscape:window-y="29"
     inkscape:window-maximized="1"
     inkscape:current-layer="svg2" />
  <!-- green dot -->
  <!-- blue dot -->
  <!-- red dot -->
  <!-- purple dot -->
  <g
     id="g3803">
    <path
       style="fill-opacity:1;fill:none;stroke:#90b3c4;stroke-opacity:1"
       id="path4"
       d="   M 700 875   h 300   a 225 225 0 0 0  -10 -450   a 310 310 0 0 0 -600 -150   a  80  80 0 0 0 -200  175   a 225 225 0 0 0  100  425   Z   "
       stroke-width="25"
       stroke="#252525"
       fill="#f5f5f5" />
    <circle
       id="circle6"
       r="262"
       cy="370"
       cx="685"
       stroke-width="20"
       stroke="#3b972e"
       fill="#6bab5b"
       d="M 947,370 C 947,514.6986 829.6986,632 685,632 540.3014,632 423,514.6986 423,370 423,225.3014 540.3014,108 685,108 c 144.6986,0 262,117.3014 262,262 z" />
    <circle
       id="circle8"
       r="83"
       cy="360"
       cx="290"
       stroke-width="20"
       stroke="#4266d5"
       fill="#6b85dd"
       d="m 373,360 c 0,45.83963 -37.16037,83 -83,83 -45.83963,0 -83,-37.16037 -83,-83 0,-45.83963 37.16037,-83 83,-83 45.83963,0 83,37.16037 83,83 z" />
    <circle
       id="circle10"
       r="175"
       cy="650"
       cx="295"
       stroke-width="20"
       stroke="#c93d39"
       fill="#d66661"
       d="m 470,650 c 0,96.64983 -78.35017,175 -175,175 -96.64983,0 -175,-78.35017 -175,-175 0,-96.64983 78.35017,-175 175,-175 96.64983,0 175,78.35017 175,175 z" />
    <circle
       id="circle12"
       r="175"
       cy="650"
       cx="995"
       stroke-width="20"
       stroke="#945bb0"
       fill="#aa7dc0"
       d="m 1170,650 c 0,96.64983 -78.3502,175 -175,175 -96.64983,0 -175,-78.35017 -175,-175 0,-96.64983 78.35017,-175 175,-175 96.6498,0 175,78.35017 175,175 z" />
  </g>
</svg>
